<?xml version="1.0" encoding="UTF-8" standalone="no"?>
<!-- Created with Inkscape (http://www.inkscape.org/) -->

<svg
   xmlns:dc="http://purl.org/dc/elements/1.1/"
   xmlns:cc="http://creativecommons.org/ns#"
   xmlns:rdf="http://www.w3.org/1999/02/22-rdf-syntax-ns#"
   xmlns:svg="http://www.w3.org/2000/svg"
   xmlns="http://www.w3.org/2000/svg"
   xmlns:sodipodi="http://sodipodi.sourceforge.net/DTD/sodipodi-0.dtd"
   xmlns:inkscape="http://www.inkscape.org/namespaces/inkscape"
   width="744.09448819"
   height="1052.3622047"
   id="svg2"
   version="1.1"
   inkscape:version="0.48.4 r9939"
   sodipodi:docname="New document 1">
  <defs
     id="defs4" />
  <sodipodi:namedview
     id="base"
     pagecolor="#ffffff"
     bordercolor="#666666"
     borderopacity="1.0"
     inkscape:pageopacity="0.0"
     inkscape:pageshadow="2"
     inkscape:zoom="1.6871094"
     inkscape:cx="299.04634"
     inkscape:cy="682.20386"
     inkscape:document-units="px"
     inkscape:current-layer="layer1"
     showgrid="false"
     inkscape:window-width="1317"
     inkscape:window-height="744"
     inkscape:window-x="49"
     inkscape:window-y="24"
     inkscape:window-maximized="1" />
  <metadata
     id="metadata7">
    <rdf:RDF>
      <cc:Work
         rdf:about="">
        <dc:format>image/svg+xml</dc:format>
        <dc:type
           rdf:resource="http://purl.org/dc/dcmitype/StillImage" />
        <dc:title></dc:title>
      </cc:Work>
    </rdf:RDF>
  </metadata>
  <g
     inkscape:label="Layer 1"
     inkscape:groupmode="layer"
     id="layer1">
    <path
       sodipodi:type="arc"
       style="fill:#7f00ff;fill-opacity:0;stroke:#000000;stroke-width:1;stroke-miterlimit:4;stroke-opacity:1;stroke-dasharray:none;stroke-dashoffset:0"
       id="path2985"
       sodipodi:cx="273.84116"
       sodipodi:cy="386.13388"
       sodipodi:rx="151.73883"
       sodipodi:ry="151.73883"
       d="m 425.57999,386.13388 a 151.73883,151.73883 0 1 1 -303.47766,0 151.73883,151.73883 0 1 1 303.47766,0 z"
       transform="matrix(-1,0,0,1,547.68231,0)" />
    <path
       style="fill:none;stroke:#000000;stroke-width:1px;stroke-linecap:butt;stroke-linejoin:miter;stroke-opacity:1"
       d="m 308.17971,466.19018 0.32392,-25.33607 -15.11812,-0.057 -0.77044,-108.04446 14.04175,-18.35527 -0.28817,-53.3685 -6.2479,-6.43419 -8.95808,-0.31576 -0.0468,-5.9885 -16.49975,0.5282 -0.75983,82.4536 -4.66463,-0.038 0.10622,-82.2511 -17.12656,-0.19028 -0.23017,5.75345 -8.37211,0.17829 -5.97836,7.52042 1.26471,53.64968 12.97485,17.32168 0.1539,107.31394 -14.27806,-0.0161 -0.58912,25.85183 14.39128,9.50947 c 0.8203,3.36805 0.52714,16.78633 1.59005,19.55635 7.64023,19.91102 29.95584,20.82279 38.21866,-0.0797 1.9558,-4.94759 1.43644,-16.46781 2.2156,-19.13115 z"
       id="path3755"
       inkscape:connector-curvature="0"
       sodipodi:nodetypes="cccccccccccccccccccccccsscc" />
  </g>
</svg>
